<?xml version="1.0" encoding="UTF-8"?>
<svg id="Layer_1" xmlns="http://www.w3.org/2000/svg" version="1.1" viewBox="0 0 492.57 372.57">
  <!-- Generator: Adobe Illustrator 30.1.0, SVG Export Plug-In . SVG Version: 2.1.1 Build 136)  -->
  <defs>
    <style>
      .st0 {
        fill: #c25c3f;
      }
    </style>
  </defs>
  <path class="st0" d="M303.03,60.2c12.37,3.87,18.86,13.15,19.6,26.83.7,12.86-2.65,25.04-5.93,37.21-7.94,29.53-16.19,58.97-24.09,88.52-4.91,18.36-6.58,37.23-4.41,56.01,2.7,23.36,17.11,41.74,43.91,42.82,17.24.69,44.94-6.82,54.98-15.54-3-3.22-6.37-6.17-8.94-9.69-9.89-13.54-13.18-29.31-12.89-45.54.62-34.02,11.14-64.79,33.49-90.85,11.15-13,25.16-21.2,42.89-21.35,19.21-.16,33.65,10.7,39.01,29.13,4.25,14.6,3.12,29.2.07,43.8-5.35,25.67-14.52,49.8-30.8,70.58-22.29,28.45-52.54,44.55-86.78,54.06-13.44,3.73-27.11,4.42-40.68,1.84-26.38-5-40.39-22.36-45.6-47.79-4.85-23.64-2.84-47.26.56-70.83,4.94-34.32,13.89-67.78,21.81-101.47,1.52-6.45,2.35-13.01,2.28-19.7-.07-6.36-3.51-9.27-9.29-10.26-6.94-1.19-12.57,1.61-17.68,5.87-15.43,12.86-25.97,29.5-35.65,46.72-16.74,29.76-26.48,62.11-34.53,95.05-2.18,8.93-4.1,17.93-6.4,26.84-1.97,7.65-9.47,11.6-17.01,9.3-4.08-1.25-5.58-4.11-5.71-8.24-.36-11.26,2.4-22.05,4.7-32.91,5.3-25.08,12.38-49.8,15.32-75.34.85-7.43,2.7-15.37-3.54-22.08-7.04-.14-11.77,3.96-16.06,8.38-7.67,7.91-13.42,17.24-18.3,27.04-22.18,44.56-36.06,91.84-45.57,140.53-.9,4.6-1.48,9.36-3.13,13.69-1.7,4.46-5.4,7.22-10.57,6.82-5.09-.39-6.54-4.41-7.5-8.42-3.11-12.98-1.23-26.01.42-38.92,4.18-32.66,13.71-64.34,18-96.99,2.36-17.97,6.08-35.86,3.38-54.17-.44-3-1.04-5.9-2.19-8.67-3.29-7.97-9.53-10.78-17.68-7.74-12.03,4.48-21.22,12.89-29.14,22.56-16.89,20.61-27.61,44.2-32.08,70.48-.82,4.8-.73,9.87-.25,14.73,1.06,10.86,9.06,16.79,19.79,14.74,5.02-.96,9.82-3.12,14.84-4.03,4.94-.9,10.74-3.17,13.72,4.09-.68,1.41-.99,3.1-2.01,4-10.36,9.15-21.99,16.05-36.24,15.58-16.61-.55-27.23-13.29-27.7-32.53-.38-15.25,3.76-29.68,9.75-43.5,10.45-24.1,25.3-45.14,45.07-62.58,7.31-6.44,15.35-11.68,24.76-14.46,12.78-3.78,23.61,1.08,29.18,13.16,4.37,9.47,5.84,19.62,6.32,29.93.84,18.15-1.04,36.21-1.68,54.49,5.6-11.94,10.94-24.01,16.87-35.78,7.06-14.01,15.19-27.39,27-38.04,6.27-5.65,13.26-10.23,22.09-10.74,10.38-.59,14.6,3.26,16.88,13.36,2.1,9.3-.36,18.32-.32,27.46,0,1.61-.9,3.33,1.06,5.55,1.57-3.34,2.96-6.35,4.38-9.34,11.94-25.11,26.31-48.62,46.3-68.22,11.4-11.18,24.38-18.99,41.94-15.46ZM463.14,159.91c-3.41-8.99-10.22-12.68-19.52-12.59-12.37.12-21.48,6.42-28.94,15.51-12.08,14.71-18.81,31.94-22.8,50.33-3.55,16.39-5.71,32.86-1,49.43,5.04,17.71,18.75,22.17,33.37,10.88,14.3-11.04,23.75-25.66,30.53-42.11,9.34-22.67,15.11-45.85,8.36-71.44Z"/>
  <path class="st0" d="M30.99,115.47c-3.29,3.41-6.24,6.51-9.25,9.55-2.61,2.65-5.6,4.47-8.95,1.47-3.25-2.91-3.29-6.62-.37-9.67,15.35-16.09,28.72-34.05,45.66-48.65,3.82-3.29,3.85-3.26,8.59-3.73,4.27,3.54,3.07,7.37.25,11.13-9.13,12.19-19.78,23.04-30.23,34.07-1.77,1.86-3.59,3.67-5.71,5.83Z"/>
</svg>