<?xml version="1.0" encoding="UTF-8"?>
<svg version="1.1" xmlns="http://www.w3.org/2000/svg" width="309" height="211">
<path d="M0 0 C3.74271669 2.49514446 5.9697963 5.40907508 7.4332428 9.69142151 C8.99774296 18.69905243 6.22877899 28.2857455 3.72265625 36.87890625 C3.41806992 37.96405014 3.11348358 39.04919403 2.79966736 40.16722107 C1.83629007 43.59402986 0.85690517 47.01595862 -0.125 50.4375 C-1.10123148 53.86314103 -2.07372638 57.28973266 -3.03895569 60.7184906 C-3.63645432 62.83865116 -4.240352 64.95702369 -4.85203552 67.07313538 C-9.01692115 81.7856111 -12.86951967 100.01797054 -6.5234375 114.66796875 C-3.3404172 119.9264672 1.01062685 122.99964706 6.8125 124.875 C18.28961686 126.18864591 30.05466447 124.38022368 39.8125 117.875 C38.69875 117.1325 38.69875 117.1325 37.5625 116.375 C31.30979778 110.69072525 29.1602837 102.59642725 28.5546875 94.375 C27.8197534 76.21033252 33.4028844 58.16792488 45.25 44.1875 C51.53323727 37.73033229 58.50042539 33.83667105 67.5625 33.5625 C72.79337758 33.6548096 76.67932354 34.58442389 80.8125 37.875 C87.02293478 44.65127439 89.02482491 51.72223685 88.65234375 60.76171875 C87.02761381 80.7049335 79.3034735 99.86961468 64.8125 113.875 C64.15378906 114.51953125 63.49507812 115.1640625 62.81640625 115.828125 C48.80477661 128.79663533 29.8849108 135.63796161 10.953125 135.1875 C3.2497201 134.76921557 -3.12334206 131.84223355 -8.7265625 126.5546875 C-17.81423718 116.10629148 -18.03820324 100.82627011 -17.39013672 87.7265625 C-15.9559331 67.5440345 -10.82696834 47.83899565 -5.97192383 28.26464844 C-4.90715913 23.66359238 -4.0434315 19.2309728 -4.125 14.5 C-4.1559375 12.705625 -4.1559375 12.705625 -4.1875 10.875 C-6.90359057 9.51695471 -9.04525553 8.60941641 -12.0859375 9.31640625 C-28.17392283 16.40656579 -36.87244408 38.49714036 -43.00732422 53.93847656 C-47.26064247 65.19614961 -50.04256655 76.85782628 -52.74047852 88.56958008 C-53.15317993 90.3121106 -53.15317993 90.3121106 -53.57421875 92.08984375 C-53.81358154 93.13261475 -54.05294434 94.17538574 -54.29956055 95.24975586 C-55.21749382 97.96367847 -55.94059439 99.14712781 -58.1875 100.875 C-60.625 101.75 -60.625 101.75 -63.1875 101.875 C-65.34765625 100.72875977 -65.34765625 100.72875977 -67.1875 98.875 C-68.54544047 88.06133815 -64.07375516 75.54101619 -61.62597656 65.02514648 C-57.07989934 48.45925347 -57.07989934 48.45925347 -58.1875 31.875 C-64.61602456 33.12934625 -67.56717293 36.74364658 -71.1875 41.875 C-85.60813823 64.71752736 -93.40165058 93.25783746 -97.85864258 119.68457031 C-99.1641813 127.07453034 -99.1641813 127.07453034 -102.1875 129.875 C-105.375 130.125 -105.375 130.125 -108.1875 129.875 C-115.69417139 113.69061648 -106.88920174 89.17667357 -103.5625 72.75 C-101.16604668 60.89685652 -99.05043516 49.44513627 -98.9375 37.3125 C-98.92807373 36.54945557 -98.91864746 35.78641113 -98.90893555 35.00024414 C-98.93311552 30.90470465 -99.0035901 27.40740848 -101.1875 23.875 C-103.4514022 22.29547931 -103.4514022 22.29547931 -106.1875 21.875 C-116.7105974 24.70033322 -123.15345374 33.11956981 -128.5546875 41.984375 C-134.71723185 52.89414251 -140.60814895 66.04746657 -138.1875 78.875 C-136.57620053 81.32504267 -136.57620053 81.32504267 -134.1875 82.875 C-131.8576769 83.1802389 -131.8576769 83.1802389 -129.4375 82.6875 C-128.56867188 82.56117188 -127.69984375 82.43484375 -126.8046875 82.3046875 C-125.50917969 82.09199219 -125.50917969 82.09199219 -124.1875 81.875 C-122.64654218 81.68176092 -121.10492698 81.49363911 -119.5625 81.3125 C-117.891875 81.0959375 -117.891875 81.0959375 -116.1875 80.875 C-115.8575 82.525 -115.5275 84.175 -115.1875 85.875 C-122.46078068 91.01478502 -127.92851919 94.71758938 -137.078125 93.3359375 C-140.80198556 92.52220501 -143.03891931 91.37873393 -145.375 88.3203125 C-149.4953082 81.42451892 -148.99095356 74.18854128 -147.5625 66.51953125 C-142.88608894 48.0435322 -131.05217077 29.25530238 -114.8125 18.875 C-110.14567002 16.10947112 -105.60986407 14.98154228 -100.1875 15.875 C-94.42889874 19.46054418 -92.15865871 23.76370559 -90.62158203 30.27075195 C-90.1814247 32.91144838 -90.05814132 35.36749335 -90.0546875 38.04296875 C-90.05275391 39.50766602 -90.05275391 39.50766602 -90.05078125 41.00195312 C-90.05464844 42.01193359 -90.05851562 43.02191406 -90.0625 44.0625 C-90.05669922 45.5484668 -90.05669922 45.5484668 -90.05078125 47.06445312 C-90.05908178 53.3936044 -90.4275154 59.59171047 -91.1875 65.875 C-90.75179687 64.84761719 -90.31609375 63.82023437 -89.8671875 62.76171875 C-76.76229005 32.13791568 -76.76229005 32.13791568 -63.1875 23.875 C-59.63396071 22.6904869 -56.91736522 22.60858106 -53.1875 22.875 C-50.57156847 24.70615207 -50.21760545 25.78468366 -49.1875 28.875 C-49.10776524 30.21025717 -49.07978662 31.54912083 -49.08984375 32.88671875 C-49.09467773 34.02270508 -49.09467773 34.02270508 -49.09960938 35.18164062 C-49.11217773 36.36016602 -49.11217773 36.36016602 -49.125 37.5625 C-49.12951172 38.35978516 -49.13402344 39.15707031 -49.13867188 39.97851562 C-49.1504415 41.94404257 -49.16837652 43.90953085 -49.1875 45.875 C-48.7028125 44.85921875 -48.218125 43.8434375 -47.71875 42.796875 C-39.85989003 26.55602369 -30.25503522 7.79809433 -13.1875 -0.125 C-8.49815463 -1.68811512 -4.66994475 -1.64821579 0 0 Z M51.4765625 53.6328125 C43.3872528 64.53249271 40.49227923 78.08146542 40.375 91.4375 C40.3649292 92.17484375 40.3548584 92.9121875 40.34448242 93.671875 C40.43775703 99.48268482 41.88136309 103.88173779 45.0625 108.8125 C48.05718498 110.63070159 50.39202496 110.27405542 53.8125 109.875 C65.69560062 104.78224259 70.96415748 93.15272983 75.8125 81.875 C79.90664493 71.02762632 81.52237008 59.92318786 77.76171875 48.8203125 C76.67293276 46.58897331 75.81930487 45.35059181 73.8125 43.875 C63.59995549 42.09542003 57.81149307 46.01415151 51.4765625 53.6328125 Z M-51.1875 48.875 C-50.1875 50.875 -50.1875 50.875 -50.1875 50.875 Z " fill="#CD674D" transform="translate(185.1875,49.125)"/>
<path d="M0 0 C0.8971875 0.309375 0.8971875 0.309375 1.8125 0.625 C1.31707926 5.12373994 -0.22183631 7.19492233 -3.3125 10.4375 C-4.12847656 11.30761719 -4.94445312 12.17773438 -5.78515625 13.07421875 C-6.97431641 14.33685547 -6.97431641 14.33685547 -8.1875 15.625 C-9.3819315 16.99398307 -10.57010918 18.36846502 -11.75 19.75 C-14.25427765 22.59788783 -16.7784563 25.42328282 -19.375 28.1875 C-20.00792969 28.86941406 -20.64085937 29.55132812 -21.29296875 30.25390625 C-23.1875 31.625 -23.1875 31.625 -25.36328125 31.52734375 C-25.96527344 31.22957031 -26.56726562 30.93179688 -27.1875 30.625 C-27.5175 29.635 -27.8475 28.645 -28.1875 27.625 C-23.7671482 20.66263286 -17.40875329 14.6029927 -11.8125 8.5625 C-11.20591553 7.90733398 -10.59933105 7.25216797 -9.97436523 6.57714844 C-9.39759033 5.96258789 -8.82081543 5.34802734 -8.2265625 4.71484375 C-7.71303223 4.16691162 -7.19950195 3.61897949 -6.67041016 3.05444336 C-2.97299855 -0.50965689 -2.97299855 -0.50965689 0 0 Z " fill="#CE6A4F" transform="translate(63.1875,51.375)"/>
<path d="M0 0 C0.99 0.33 1.98 0.66 3 1 C2.32517578 1.56654297 2.32517578 1.56654297 1.63671875 2.14453125 C-4.56479626 7.45123848 -10.2807538 13.18613392 -16 19 C-16.66 18.67 -17.32 18.34 -18 18 C-17.57589844 17.5875 -17.15179688 17.175 -16.71484375 16.75 C-12.82669496 12.92166888 -9.18076968 8.97943876 -5.67578125 4.796875 C-3.8916391 2.88380882 -2.2390963 1.36023996 0 0 Z " fill="#D67E63" transform="translate(61,51)"/>
<path d="M0 0 C0.66 0.33 1.32 0.66 2 1 C-1.96 4.96 -5.92 8.92 -10 13 C-10.66 12.67 -11.32 12.34 -12 12 C-10.75479583 10.55834372 -9.50362077 9.12184348 -8.25 7.6875 C-7.55390625 6.88699219 -6.8578125 6.08648437 -6.140625 5.26171875 C-4.20854665 3.22034399 -2.30056874 1.60107149 0 0 Z " fill="#D57C61" transform="translate(166,52)"/>
</svg>
