<?xml version="1.0" encoding="UTF-8"?>
<svg id="Layer_1" xmlns="http://www.w3.org/2000/svg" version="1.1" viewBox="0 0 492.57 223.43">
  <!-- Generator: Adobe Illustrator 30.1.0, SVG Export Plug-In . SVG Version: 2.1.1 Build 136)  -->
  <defs>
    <style>
      .st0 {
        fill: #fffbf8;
      }
    </style>
  </defs>
  <path class="st0" d="M263.29,61.76c.61.56,1.27.85,1.91.85.11,0,.21,0,.32-.02.46-.07.89-.28,1.28-.63.92-.82.19-2.05-.73-3.61-1.69-2.85-4.23-7.16-.99-12.4,4.2-6.78,9.51-3.54,13.04-1.39h.02c1.46.9,2.34,1.44,3.09,1.17.31-.11.55-.36.67-.69.57-1.61-.53-3.33-2.95-4.61-4.27-2.26-12.46-2.99-16.5,2.59-4.44,6.14-2.04,16.1.86,18.74Z"/>
  <path class="st0" d="M261.08,82.18c-.86.98-1.13,2.13-.76,3.22.35,1.04,1.25,1.84,2.29,2.04.52.1,1.03.05,1.51-.14.47-.19.9-.51,1.29-.96h0c.75-.9,2.9-3.14,5.62-5.98,11.01-11.47,21.69-22.85,20.81-24.88-.37-.86-.84-1.93-1.68-2.2-.45-.14-.95-.04-1.51.3-4.52,2.75-13.38,12.85-19.86,20.23-3.69,4.21-6.61,7.53-7.71,8.36Z"/>
  <path class="st0" d="M5.78,111.18c.47-.19.9-.51,1.29-.96h0c.75-.9,2.9-3.14,5.62-5.98,11.01-11.47,21.69-22.85,20.81-24.88-.37-.86-.84-1.93-1.68-2.2-.45-.14-.95-.04-1.51.3-4.52,2.75-13.38,12.85-19.86,20.23-3.69,4.21-6.61,7.53-7.71,8.36-.86.98-1.13,2.13-.76,3.22.35,1.04,1.25,1.84,2.29,2.04.52.1,1.03.05,1.51-.14Z"/>
  <path class="st0" d="M195.02,199.73c-10.96,11.76-21.62,11.82-28.25,8.79-6.82-3.13-10.96-12.78-12.3-28.67-.57-23.71,9.81-56.39,14.81-81.88,4.12-14.09-.58-24.69-14.83-23.3-8.51,1-16.96,7.95-27.4,22.55-10.98,16.07-14.97,25.26-21.65,45.14,2.9-13.99,10.55-41.38-2.52-41.98-18.3,0-31.53,31.76-40.66,55.79,8.34-47.92.26-60.82-8.22-63.06-14.71-3.89-39.13,23.83-47.32,48.15-5.94,17.64-3.42,31.78,8.81,34.87,7.56,1.91,16.23-3.33,20.5-6.44,2.15-1.47,3.09-3.12,2.53-4.43-.62-1.44-2.85-1.92-5.9-1.24-9.3,3.72-15.48,3.59-18.36-.39-6.3-8.71,2.13-36.18,15.45-52.24,7.47-9,16.99-14.81,21.5-13.49,8.37,2.45,9.76,16.45.08,64.98-.53,1.02-14.88,61.62,1.19,52.71,1.51-1.06,2.65-2.82,2.9-4.48,5.2-34.14,26.68-103.19,45.23-102.66,9.48,4.35-10.7,61.3-8.75,73.09.73,5.32,10.35,3.97,11.45-.97,5.49-24.53,10.9-46.46,21.63-66.26,7.71-14.23,19.71-30.71,28.32-30.71,3.07.06,5.38.82,6.48,2.37,3.39,2.64-.99,18.76-3.79,29.89-10.09,42.34-22.62,98.69,17.09,105.24,15.61,2.57,29.88-8.89,29.24-19.08-.54-2.82-5.23-4.39-7.26-2.27Z"/>
  <path class="st0" d="M488.84,119.47c-11.22,6.34-17.59-.78-13.48-16.61,2.87-11.06,4.58-14.04.46-14.45,2.42-9.18,4.06-19.31,1.27-28.62-.21-.71-.46-1.4-.73-2.09-2.54-6.33-7.77-11.76-14.53-13.31-5.75-1.31-12-.32-17.26,2.23-5.44,2.63-9.98,6.85-13.71,11.57-4.07,5.16-7.25,11-9.75,17.06-2.47,6.01-4.3,12.3-5.38,18.72-.86,5.15-1.29,10.46-.71,15.67,1.6,14.24,6.86,22.46,13.69,25.66-20.83,11.35-44,13.85-53.17-3.51,2.3-4.27,4.07-8.28,5.25-11.29,1.18-2.99,2.61-8.98,3.03-10.55,2.49-9.3,4.24-19.63,1.4-29.09-.21-.71-.46-1.4-.73-2.09-1.16-2.89-2.88-5.59-5.05-7.82.05-.18.1-.37.15-.55,7.92-28.63,14.14-51.86,16.52-61.57.68-2.79-.46-5.89-2.92-6.36-5.92-1.13-7.39,6.87-8.54,11.42-4.14,17.5-7.48,35.16-11.28,52.73-1.09-.49-2.22-.89-3.41-1.16-5.75-1.31-12-.32-17.26,2.23-5.44,2.63-9.98,6.85-13.71,11.57-4.07,5.16-7.25,11-9.75,17.06-2.47,6.01-4.3,12.3-5.38,18.72-.86,5.15-1.29,10.46-.71,15.67.51,4.56,1.4,8.49,2.59,11.85-4.36,9.95-13.28,18.45-22.61,21.43-3.81,1.22-9.34,1.99-14.26-1.02,5.33-13.27,3.09-32.34-2.93-60.94-.12-.58-.77-4.07-3.52-4.87-2.45-.7-5.3.81-6.06,3.25-7.16,22.93-8.94,51.34.68,65.63-2.04,2.53-4.21,3.98-7.38,5.83-11.78,6.88-24.93,8.49-35.18,4.32-4.98-2.03-8.4-5.17-9.37-8.61-.33-1.49.55-7.72,1.87-13.34.55-2.34-.89-4.69-3.23-5.24-2.34-.55-4.67.89-5.23,3.24-.04.18-.09.38-.13.58-1.7,4.5-3.4,17.84-16.85,25.27-30.65,16.95-21.89-68.61,9.04-70.82,21.57-1.54,8.18,30.12,15.64,30.56,7.17.42,7.89-14.56,5.8-22.98-2.01-8.05-7.37-14.85-15.79-16.53-31.66-5.18-47.93,43.44-44.15,67.29,5.36,33.52,29.61,33.7,45.78,7.21,2.37,4.83,7.09,8.91,13.36,11.46,4.78,1.94,10.03,2.9,15.46,2.9,9.02,0,18.56-2.64,27.35-7.77,4.19-2.45,7.55-5.24,10.17-8.46,3.7,2.23,7.95,3.38,12.47,3.38,3,0,6.11-.5,9.26-1.5,9.99-3.18,19.29-10.95,25.23-20.72,3.13,3.47,6.92,5.33,11.02,5.74,12.48,1.26,22.49-8.76,29.43-19.4,4.92,8.43,13.39,13.82,26.71,14.59,18.75,1.07,44.87-13.06,54.34-22.91,4.69-3.97,8.7-9.23,11.95-14.51.9,9.68,8.28,17.77,22.18,12.46,1.94-.74,4.06-2.03,4.97-3.56,2.17-3.63-.51-6.37-2.93-5.01ZM284.56,158c-4.25-5.01-7.77-25.8-.74-47.7,3.34,19.32,4.82,41.35.74,47.7ZM367.9,129.24c-3.56,6.2-8.35,12.2-14.74,16.51-31.02,16.28-19.72-69.68,11.17-71.55,2.49-.15,4.93.17,7.01,1.19-4.95,20-7.3,39.43-3.44,53.85ZM373.48,93.52c.82-4.25,1.87-8.26,2.97-12.19.81,2.13,1.21,4.47,1.47,6.7.38,3.23.34,6.5.05,9.74-.15,1.66-.36,3.31-.64,4.95-.46,2.73-1.92,9.9-5.25,17.97-1.08-7.14-.75-16.11,1.4-27.16ZM469.85,76.72c-.15,1.66-.36,3.31-.64,4.95-.96,5.71-6.31,30.99-24.17,43.04-31.02,16.28-19.72-69.68,11.17-71.55,4.48-.27,8.82.98,11.16,5.09,1.49,2.61,2.08,5.77,2.42,8.72.38,3.23.34,6.5.05,9.74Z"/>
</svg>